<?xml version="1.0" encoding="UTF-8" standalone="no"?>
<!DOCTYPE svg PUBLIC "-//W3C//DTD SVG 1.1//EN" "http://www.w3.org/Graphics/SVG/1.1/DTD/svg11.dtd">
<svg width="100%" height="100%" viewBox="0 0 3604 1773" version="1.1" xmlns="http://www.w3.org/2000/svg" xmlns:xlink="http://www.w3.org/1999/xlink" xml:space="preserve" xmlns:serif="http://www.serif.com/" style="fill-rule:evenodd;clip-rule:evenodd;stroke-linecap:round;stroke-linejoin:round;stroke-miterlimit:1.5;">
    <g id="Artboard6" transform="matrix(1.972633,0,0,1,-1952.906404,-107)">
        <rect x="990" y="107" width="1827" height="1773" style="fill:white;"/>
        <g transform="matrix(0.506937,0,0,1,751.739734,-351)">
            <g id="Bamboo" transform="matrix(0.934825,0.15435,-0.170306,1.031467,694.173896,-169.233985)">
                <g>
                    <path d="M537.736,1285.362C521.144,1287.881 513.493,1314.481 495.03,1326.613C452.335,1354.666 386.249,1374.169 346.972,1417.897C293.93,1476.951 131.827,1429.189 103.636,1476.98C101.433,1403.795 182.666,1374.797 257.002,1329.534C314.493,1294.527 403.392,1301.75 467.593,1300.319C499.232,1299.614 523.358,1286.208 537.736,1285.362ZM1110.277,1341.356C1137.767,1350.426 1169.049,1330.491 1215.382,1328.71C1261.715,1326.928 1302.996,1389.927 1329.709,1378.773C1308.517,1404.279 1275.553,1384.167 1228.447,1389.448C1168.445,1396.176 1116.789,1370.156 1110.277,1341.356ZM1088.282,1332.032C1088.605,1303.875 1123.352,1277.427 1160.694,1270.564C1187.77,1265.587 1216.012,1265.585 1229.61,1284.089C1213.136,1274.781 1187.682,1322.498 1160.994,1324.677C1134.306,1326.856 1103.029,1320.175 1088.282,1332.032ZM1088.392,1348.472C1095.979,1369.56 1115.952,1376.7 1144.183,1389.375C1176.119,1403.714 1178.68,1434.587 1187.189,1468.653C1167.873,1454.963 1162.29,1438.266 1129.162,1437.975C1086.402,1437.598 1070.154,1382.313 1088.392,1348.472ZM1215.059,701.721C1221.908,661.945 1296.692,626.949 1360.413,634.815C1410.437,640.989 1487.189,641.163 1509.746,675.765C1482.641,664.921 1405.257,723.399 1354.593,717.573C1305.781,711.96 1244.226,688.605 1215.059,701.721ZM1214.356,745.162C1225.774,799.565 1275.706,831.396 1328.638,897.75C1381.571,964.104 1359.239,1068.618 1409.745,1091.838C1336.8,1098.147 1306.13,1054.847 1245.465,992.539C1168.19,913.171 1164.456,797.618 1214.356,745.162ZM1219.049,720.577C1259.194,715.398 1400.655,753.245 1496.772,826.572C1578.097,888.614 1638.936,923.583 1638.585,990.751C1614.851,926.595 1482.532,935.569 1403.245,876.955C1323.67,818.128 1273.456,753.983 1219.049,720.577ZM562.623,775.225C562.623,775.225 560.993,787.988 562.265,791.149L646.176,999.647C656.437,1005.503 662.37,1014.693 665.234,1026.246L497.349,1091.054C491.831,1082.689 492.535,1072.151 497.333,1060.184L411.572,838.482L361.065,673.847C440.393,688.828 479.169,733.145 562.623,775.225ZM680.589,1062.007C680.015,1069.983 678.798,1077.003 675.479,1080.89L832.996,1525.115C845.718,1530.955 854.937,1538.346 845.23,1547.707L682.28,1602.037C676.518,1594.336 679.323,1586.716 684.858,1579.122L537.551,1134.664C517.736,1131.835 506.367,1123.367 503.748,1108.293L680.589,1062.007ZM853,1583L861.343,1589.946C864.091,1674.825 916.553,1742.216 948,1817L792,1847L707.701,1635.4C701.877,1632.049 691.256,1623.962 689.102,1618.39L853,1583ZM1160,893L1056.62,1411.815C1057.577,1422.286 1063.184,1432.614 1057.187,1445.858L864.495,1400.523C867.953,1389.084 877.973,1362.044 898.494,1356.55L1003,880L1160,893ZM1273.916,478.139L1247.783,506.175L1156.132,838.58L1168.42,875.009L998.453,844.844L976.105,828.014L1011.136,798.582L1076,562C1113.771,518.919 1158.558,488.995 1213.264,479.074C1226.936,476.594 1259.798,478.947 1273.916,478.139ZM1062.847,1481.03C1054.57,1496.948 1044.737,1500.446 1034.672,1502.079L962.352,1810.588L868.607,1590.766C869.098,1585.437 870.173,1579.523 868.101,1575.488C865.441,1570.309 858.833,1567.415 852.294,1564.196C869.067,1556.928 870.917,1538.356 856.198,1529.063L876.22,1437.633C871.093,1433.309 868.403,1424.701 867.121,1413.62L1062.847,1481.03ZM537.106,1272.845C473.097,1250.014 399.426,1248.941 288.69,1244.801C177.955,1240.661 100.058,1122.899 34.522,1140.887C89.296,1093.104 155.315,1148.159 268.476,1145.386C412.62,1141.854 526.396,1213.815 537.106,1272.845ZM562.455,1287.502C547.817,1314.881 540.938,1339.278 541.741,1385.639C542.544,1431.999 439.251,1463.881 454.828,1490.737C435.492,1465.972 466.015,1375.514 486.943,1351.08C530.391,1300.353 535.092,1301.353 562.455,1287.502Z" style="fill:url(#_Linear1);"/>
                </g>
            </g>
            <g id="Bamboo1" serif:id="Bamboo" transform="matrix(0.934825,0.15435,-0.170306,1.031467,694.173896,-169.233985)">
                <g>
                    <path d="M742.095,1268.758L832.996,1525.115C845.718,1530.955 854.937,1538.346 845.23,1547.707L682.28,1602.037C676.518,1594.336 679.323,1586.716 684.858,1579.122L569.643,1231.492L742.095,1268.758ZM537.736,1285.362C521.144,1287.881 513.493,1314.481 495.03,1326.613C452.335,1354.666 386.249,1374.169 346.972,1417.897C293.93,1476.951 131.827,1429.189 103.636,1476.98C101.433,1403.795 182.666,1374.797 257.002,1329.534C314.493,1294.527 403.392,1301.75 467.593,1300.319C499.232,1299.614 523.358,1286.208 537.736,1285.362ZM1110.277,1341.356C1137.767,1350.426 1169.049,1330.491 1215.382,1328.71C1261.715,1326.928 1302.996,1389.927 1329.709,1378.773C1308.517,1404.279 1275.553,1384.167 1228.447,1389.448C1168.445,1396.176 1116.789,1370.156 1110.277,1341.356ZM1088.282,1332.032C1088.605,1303.875 1123.352,1277.427 1160.694,1270.564C1187.77,1265.587 1216.012,1265.585 1229.61,1284.089C1213.136,1274.781 1187.682,1322.498 1160.994,1324.677C1134.306,1326.856 1103.029,1320.175 1088.282,1332.032ZM1088.392,1348.472C1095.979,1369.56 1115.952,1376.7 1144.183,1389.375C1176.119,1403.714 1178.68,1434.587 1187.189,1468.653C1167.873,1454.963 1162.29,1438.266 1129.162,1437.975C1086.402,1437.598 1070.154,1382.313 1088.392,1348.472ZM853,1583L861.343,1589.946C864.091,1674.825 916.553,1742.216 948,1817L792,1847L707.701,1635.4C701.877,1632.049 691.256,1623.962 689.102,1618.39L853,1583ZM562.455,1287.502C547.817,1314.881 540.938,1339.278 541.741,1385.639C542.544,1431.999 439.251,1463.881 454.828,1490.737C435.492,1465.972 466.015,1375.514 486.943,1351.08C530.391,1300.353 535.092,1301.353 562.455,1287.502Z" style="fill:url(#_Linear2);"/>
                </g>
            </g>
            <g>
                <path d="M1453.049,1417.65L1441.488,1450.096C1440.599,1461.044 1444.082,1472.563 1436.22,1485.297L1263.808,1408.794C1268.988,1397.529 1282.96,1371.184 1303.08,1368.685L1321.508,1319.7L1453.049,1417.65ZM1435.521,1522.45C1425.072,1537.591 1415.285,1539.681 1405.597,1539.813L1285.45,1846.867L1235.252,1605.659C1236.619,1600.237 1238.63,1594.303 1237.38,1589.822C1235.776,1584.069 1230.092,1580.063 1224.527,1575.735C1241.444,1570.827 1246.337,1551.956 1234.16,1540.098L1268.448,1448.881C1264.392,1443.63 1263.343,1434.336 1264.032,1422.708L1435.521,1522.45Z" style="fill:url(#_Linear3);"/>
            </g>
        </g>
        <g id="Jar" transform="matrix(0.246042,-0.782986,0.428395,0.523833,529.621215,2119.135886)">
            <g transform="matrix(1,0,-0,1.266493,632,-374.060232)">
                <ellipse cx="1235.5" cy="1318.5" rx="153.5" ry="299.5" style="fill:rgb(167,163,154);"/>
            </g>
            <g transform="matrix(0.009183,0.842872,-1.615354,0.017599,4670.463404,-85.789084)">
                <path d="M1947.677,1994.196C1932.123,2003.69 1916.124,2012.894 1900.176,2021.75L1294.824,2021.75C1267.365,2003.787 1239.976,1982.18 1215.673,1959.739M1215.673,1959.739C1181.191,1927.897 1152.922,1894.374 1139.479,1867.192C1025.269,1636.262 1316.915,1467.929 1579.66,1463.511C1898.075,1458.158 2199.789,1612.011 2078.374,1876.607C2059.443,1917.862 2006.779,1958.122 1947.677,1994.196" style="fill:rgb(124,133,152);stroke:black;stroke-width:0.83px;"/>
            </g>
            <g transform="matrix(1.108109,0,0,0.960739,128.809555,27.14924)">
                <ellipse cx="1235.5" cy="1318.5" rx="153.5" ry="299.5" style="fill:rgb(124,133,152);stroke:black;stroke-width:1.01px;"/>
            </g>
            <g transform="matrix(1.112269,0,-0,1.008152,140.340167,-33.472019)">
                <ellipse cx="1235.5" cy="1318.5" rx="153.5" ry="299.5" style="fill:rgb(124,133,152);"/>
            </g>
            <g transform="matrix(1.633824,-0,0,1.009774,81.836245,-30.370316)">
                <path d="M1234.5,1014C1319.219,1014 1388,1151.201 1388,1316.5C1388,1466.479 1332.716,1603.079 1258.636,1626.067C1253.967,1627.516 1248.1,1627.517 1242.446,1626.442C1240.561,1626.084 1238.7,1625.406 1236.915,1624.856C1235.376,1624.381 1233.893,1624 1232.5,1624C1147.781,1624 1082,1483.799 1082,1318.5C1082,1153.201 1149.781,1014 1234.5,1014Z" style="fill:rgb(83,89,101);stroke:black;stroke-width:0.33px;"/>
            </g>
            <g transform="matrix(1.530107,-0,0,1.009774,249.878765,-29.656131)">
                <path d="M1234.5,1014C1319.219,1014 1388,1151.201 1388,1316.5C1388,1481.799 1317.219,1624 1232.5,1624C1147.781,1624 1082,1483.799 1082,1318.5C1082,1297.807 1083.062,1277.522 1085.087,1257.869C1099.236,1120.53 1160.387,1014 1234.5,1014Z" style="fill:rgb(114,118,127);stroke:black;stroke-width:0.34px;"/>
            </g>
            <g transform="matrix(1.225878,-0,0,0.822468,637.566258,211.143237)">
                <path d="M1234.5,1014C1319.219,1014 1388,1151.201 1388,1316.5C1388,1481.799 1317.219,1624 1232.5,1624C1147.781,1624 1082,1483.799 1082,1318.5C1082,1153.201 1149.781,1014 1234.5,1014Z" style="fill:rgb(58,57,63);stroke:black;stroke-width:1.01px;"/>
            </g>
            <g transform="matrix(0.155958,0.244681,-0.245085,0.134106,2197.855973,1131.795843)">
                <path d="M1238.112,1034.591C1270.003,1040.262 1267.975,1073.026 1284.528,1087.293C1304.235,1104.279 1332.42,1083.053 1348.524,1114.397C1361.256,1139.177 1331.694,1183.312 1331.089,1243.008C1330.4,1310.946 1341.684,1328.994 1335.689,1345.703C1323.403,1379.938 1325.464,1399.302 1287.861,1403.993C1239.066,1410.081 1195.898,1354.886 1239.679,1280.234C1251.705,1259.728 1275.621,1220.993 1274.792,1202.029C1273.682,1176.623 1244.001,1171.509 1233.377,1147.909C1210.827,1097.819 1198.2,1059.835 1205.822,1048.685C1210.24,1042.221 1217.488,1030.923 1238.112,1034.591Z" style="fill:rgb(107,142,138);stroke:black;stroke-width:1.53px;"/>
            </g>
            <g transform="matrix(1.225878,0,-0,0.822468,637.566258,211.143237)">
                <path d="M1234.5,1014C1291.213,1014 1336.168,1075.822 1311.818,1157.898C1299.793,1198.429 1245.55,1239.732 1233.564,1293.045C1216.423,1369.286 1203.752,1445.353 1236.072,1497.982C1250.109,1520.84 1251.14,1562.027 1240.059,1581.425C1233.2,1593.432 1236.228,1602.092 1236.734,1607.83C1237.516,1616.693 1238.143,1619.498 1232.5,1624C1166.278,1676.838 1080.951,1484.544 1080.951,1319.246C1080.951,1153.947 1149.781,1014 1234.5,1014Z" style="fill:rgb(107,142,138);stroke:black;stroke-width:0.42px;"/>
            </g>
        </g>
        <g transform="matrix(0.454828,0.239736,-0.121531,0.897209,548.678461,-567.722135)">
            <path d="M2554.309,1147.039C2555.298,1158.585 2559.283,1168.879 2561.45,1174.759C2536.352,1166.835 2520.018,1139.499 2530.059,1115.797C2530.994,1113.59 2532.024,1111.476 2533.137,1109.458C2531.292,1097.277 2533.145,1084.637 2538.792,1073.417C2551.149,1048.863 2575.613,1039.326 2594.943,1044.298C2595.39,1043.964 2595.845,1043.638 2596.307,1043.321C2608.686,1034.835 2622.184,1033.67 2633.75,1037.254C2666.053,1028.748 2693.919,1059.699 2669.112,1093.08C2668.413,1090.677 2666.934,1083.088 2662.408,1077.375C2661.923,1081.841 2660.541,1086.423 2658.108,1090.992C2657.099,1087.537 2652.007,1074.557 2641.096,1070.001C2636.533,1070.08 2631.708,1070.763 2628.144,1072.675C2625.946,1073.853 2623.956,1075.112 2622.151,1076.427C2622.323,1077.684 2622.452,1078.977 2622.536,1080.304C2621.943,1079.751 2621.009,1079.042 2619.791,1078.265C2607.415,1088.554 2605.134,1101.442 2604.13,1106.625C2600.081,1099.664 2598.063,1092.241 2597.802,1084.921C2595.814,1087.382 2594.03,1089.951 2592.447,1092.527C2594.388,1095.724 2595.865,1099.648 2596.745,1104.343C2594.948,1104.115 2591.259,1103.526 2586.75,1103.659C2584.732,1108.498 2583.539,1112.748 2583.153,1115.559C2581.14,1112.154 2579.532,1108.547 2578.317,1104.822C2573.326,1106.122 2568.14,1108.712 2563.763,1113.606C2564.285,1129.863 2567.026,1146.194 2563.844,1153.626C2560.383,1151.667 2557.204,1149.457 2554.309,1147.039ZM2576.333,1076.321C2573.826,1077.558 2571.473,1079.205 2569.578,1081.666C2571.652,1081.438 2573.687,1081.431 2575.655,1081.653C2575.802,1079.862 2576.028,1078.082 2576.333,1076.321ZM2685.889,1216.846C2682.033,1215.182 2678.254,1213.087 2674.606,1210.537C2680.145,1204.228 2697.095,1199.545 2712.461,1192.594C2714.236,1187.854 2714.567,1183.311 2714.092,1179.171C2709.654,1179.953 2705.111,1180.209 2700.572,1179.866C2703.316,1178.009 2707.332,1174.297 2711.395,1169.306C2709.368,1164.575 2706.83,1161.07 2705.715,1159.415C2710.67,1157.982 2715.137,1157.574 2719.087,1158.019C2721.046,1154.523 2722.779,1150.759 2724.091,1146.82C2716.884,1152.544 2707.85,1156.226 2697.647,1156.765C2702.165,1152.376 2714.86,1140.463 2712.9,1118.079C2712.447,1112.905 2709.16,1107.102 2705.913,1102.643C2698.848,1100.692 2691.812,1101.359 2689.434,1101.778C2691.701,1098.623 2694.237,1095.995 2696.963,1093.861C2687.94,1089.265 2676.538,1094.015 2673.389,1094.978C2687.465,1056.66 2727.379,1062.083 2738.849,1092.26C2752.334,1100.158 2762.065,1115.667 2759.662,1135.125C2772.645,1150.391 2774.685,1176.721 2757.779,1198.559C2750.544,1207.905 2740.727,1214.763 2729.774,1218.528C2728.476,1220.426 2727.054,1222.294 2725.508,1224.119C2708.864,1243.755 2677.101,1241.475 2658.726,1222.632C2664.797,1221.938 2675.393,1220.897 2685.889,1216.846ZM2738.792,1168.608C2738.099,1169.113 2737.394,1169.605 2736.677,1170.081C2737.1,1170.877 2737.487,1171.704 2737.838,1172.559C2738.321,1171.247 2738.622,1169.927 2738.792,1168.608ZM2558.435,1337.334C2517.419,1307.863 2514.383,1291.137 2510.558,1282.465C2497.265,1252.322 2531.75,1212.38 2559.485,1211.852C2549.167,1226.406 2531.271,1259.589 2541.621,1281.874C2544.733,1288.575 2561.508,1302.717 2569.89,1309.517C2568.463,1306.191 2566.645,1302.861 2564.384,1299.554C2529.129,1248.018 2575.005,1193.122 2583.39,1201.024C2580.506,1209.193 2567.446,1233.901 2581.772,1264.919C2587.427,1277.163 2593.54,1290.744 2598.475,1304.283C2598.944,1303.338 2599.384,1302.373 2599.791,1301.39C2615.832,1262.688 2636.468,1228.044 2625.29,1217.592C2659.871,1248.421 2643.505,1299.398 2609.63,1333.447C2643.573,1356.651 2656.664,1379.726 2657.11,1399.161C2658.492,1459.304 2613.748,1485.233 2578.718,1446.486C2635.31,1449.907 2642.715,1387.449 2608.06,1368.212C2607.106,1367.681 2606.16,1367.154 2605.225,1366.63C2597.842,1384.675 2579.296,1405.753 2569.107,1414.787C2555.607,1426.757 2539.845,1430.404 2530.122,1435.093C2512.258,1443.706 2481.744,1426.387 2470.885,1409.748C2463.641,1398.649 2468.891,1381.944 2478.016,1370.132C2471.414,1368.957 2465.598,1367.47 2460.705,1366.609C2441.173,1363.173 2434.345,1345.81 2435.243,1325.962C2436.173,1305.396 2463.464,1283.39 2479.939,1289.142C2475.905,1295.559 2467.589,1300.999 2466.961,1308.319C2465.923,1320.416 2465.169,1330.694 2472.47,1336.448C2482.451,1344.312 2516.036,1348.859 2528.215,1346.507C2535.378,1345.123 2546.717,1342.291 2558.435,1337.334ZM2492.719,1371.811C2491.169,1378.784 2489.85,1385.881 2491.9,1389.318C2498.12,1399.745 2507.525,1399.157 2516.812,1399.565C2529.506,1400.124 2548.458,1382.921 2556.972,1373.901C2559.623,1371.093 2562.443,1367.382 2565.018,1362.986L2564.65,1363.122C2544.431,1370.528 2517.976,1370.069 2504.276,1371.47C2500.271,1371.88 2496.414,1371.958 2492.719,1371.811ZM2625.884,1180.133C2618.955,1180.498 2609.197,1180.892 2603.244,1188.686C2597.29,1196.48 2593.353,1204.085 2594.824,1210.867C2584.736,1203.161 2582.859,1189.393 2589.577,1178.538C2597.554,1165.647 2616.181,1167.911 2625.884,1180.133ZM2625.872,1168.44C2626.265,1166.596 2615.38,1153.527 2596.835,1164.846C2584.52,1172.364 2579.439,1186.277 2581.608,1196.174C2566.853,1184.903 2562.033,1163.341 2573.846,1149.001C2593.697,1124.904 2633.298,1136.622 2625.872,1168.44ZM2630.033,1147.593C2629.489,1136.208 2616.277,1124.161 2596.897,1131.047C2584.601,1135.416 2575.656,1141.709 2571.444,1149.687C2567.607,1133.924 2577.016,1117.709 2593.333,1113.059C2625.845,1103.793 2659.125,1121.895 2630.033,1147.593ZM2649.66,1134.31C2647.393,1127.751 2646.665,1114.071 2637.528,1110.506C2628.391,1106.941 2616.041,1105.875 2609.931,1109.165C2614.545,1097.339 2630.375,1092.255 2642.664,1095.707C2657.259,1099.806 2658.721,1121.603 2649.66,1134.31ZM2627.027,1171.788C2641.18,1178.363 2647.738,1195.943 2637.07,1206.715C2628.088,1215.785 2614.263,1217.181 2604.411,1209.176C2611.349,1209.019 2617.822,1203.413 2624.007,1195.801C2630.192,1188.189 2628.293,1178.611 2627.027,1171.788ZM2633.821,1163.951C2657.969,1141.941 2687.523,1170.787 2676.179,1199.874C2669.428,1217.183 2648.256,1223.499 2631.217,1216.121C2640.914,1213.184 2650.578,1201.959 2651.129,1187.541C2651.959,1165.83 2635.24,1162.708 2633.821,1163.951ZM2648.612,1151.991C2655.701,1113.827 2688.335,1133.068 2697.1,1165.719C2701.498,1182.105 2692.427,1198.511 2676.932,1203.323C2681.611,1195.609 2682.411,1184.701 2679.838,1171.908C2675.783,1151.745 2658.658,1146.605 2648.612,1151.991ZM2658.702,1126.073C2667.424,1113.132 2688.349,1106.858 2697.307,1119.088C2704.849,1129.387 2705.638,1145.994 2696.181,1154.462C2697.119,1147.587 2691.79,1136.395 2685.248,1129.088C2678.705,1121.781 2665.639,1125.897 2658.702,1126.073ZM2540.175,1062.335C2530.229,1062.19 2514.012,1066.002 2513.696,1114.439C2513.471,1148.921 2535.479,1172.03 2554.513,1174.791C2522.421,1181.226 2485.315,1156.949 2482.899,1119.288C2479.35,1063.977 2517.41,1024.974 2540.175,1062.335ZM2561.286,1036.001C2559.278,1024.983 2553.965,1006.588 2524.558,1012.17C2506.041,1015.685 2498.405,1034.057 2502.241,1052.1C2489.551,1021.929 2497.003,994.745 2516.847,989.83C2552.691,980.953 2580.131,1010.471 2561.286,1036.001ZM2598.917,991.144C2601.217,978.631 2603.373,956.5 2572.529,953.207C2545.586,950.332 2531.598,964.306 2537.923,986.121C2514.429,955.691 2540.949,928.223 2572.907,928.577C2613.45,929.026 2627.533,972.977 2598.917,991.144ZM2776.498,1176.893C2819.893,1171.328 2813.216,1225.413 2767.811,1257.197C2736.895,1278.839 2694.757,1265.033 2679.732,1235.954C2693.778,1249.091 2725.573,1251.838 2752.356,1230.12C2789.981,1199.613 2782.825,1184.568 2776.498,1176.893ZM2783.872,1143.957C2792.033,1113.293 2832.225,1116.278 2847.686,1149.811C2856.246,1168.377 2839.675,1191.179 2808.189,1200.119C2824.674,1191.842 2834.249,1174.402 2825.425,1157.747C2811.412,1131.298 2793.73,1138.642 2783.872,1143.957ZM2795.388,1086.55C2791.695,1052.856 2834.812,1036.393 2860.491,1067.77C2880.733,1092.503 2875.854,1130.371 2837.415,1131.038C2858.401,1122.348 2860.573,1102.695 2841.495,1083.453C2819.655,1061.426 2803.721,1076.936 2795.388,1086.55ZM2449.181,824.88C2545.09,846.181 2500.067,951.015 2472.91,1050.276C2468.354,1066.927 2468.076,1112.327 2488.279,1150.005C2452.942,1140.651 2412.858,1050.832 2433.509,1008.175C2480.563,910.98 2473.18,851.13 2449.181,824.88ZM2765.235,1265.47C2800.72,1263.058 2847.39,1224.867 2880.476,1122.075C2894.996,1076.961 2986.013,1039.677 3018.031,1057.314C2977.4,1070.614 2946.25,1103.643 2938.046,1118.833C2889.143,1209.379 2849.314,1316.295 2765.235,1265.47ZM2425.701,1139.083C2422.758,1145.146 2411.022,1154.753 2437.774,1167.142C2444.472,1170.244 2451.937,1167.964 2459.157,1157.983C2458.997,1178.464 2445.508,1177.986 2435.666,1178.466C2397.438,1180.328 2390.226,1162.973 2425.701,1139.083ZM2382.179,1307.349C2392.552,1307.438 2393.694,1299.347 2393.694,1299.347C2399.817,1293.635 2403.475,1291.242 2426.828,1240.764C2427.802,1238.658 2435.344,1228.176 2437.694,1225.252C2453.949,1205.026 2487.39,1190.124 2488.964,1193.383C2505.846,1191.463 2518.371,1192.953 2531.414,1194.038C2531.414,1194.038 2557.018,1185.895 2566.91,1184.863C2570.311,1194.35 2551.798,1211.434 2522.314,1220.839C2495.462,1207.246 2439.789,1244.608 2435.681,1272.866C2422.502,1363.516 2284.181,1347.758 2329.955,1270.117C2358.339,1221.974 2409.423,1234.156 2397.863,1261.46C2389.099,1255.629 2363.968,1261.049 2357.547,1272.375C2354.765,1277.282 2341.74,1304.766 2351.618,1308.749C2361.348,1312.673 2389.415,1307.667 2382.179,1307.349ZM2339.436,1079.698C2347.144,1080.962 2311.62,1081.897 2303.982,1104.91C2300.253,1116.145 2308.394,1142.691 2326.753,1155.251C2351.26,1172.019 2389.131,1185.07 2401.06,1184.77C2433.328,1183.957 2461.446,1184.874 2482.858,1177.049C2472.887,1197.555 2455.314,1205.849 2429.621,1209.214C2418.528,1210.667 2402.418,1213.62 2390.754,1210.272C2300.296,1184.306 2237.873,1117.642 2277.879,1072.521C2286.173,1063.168 2302.096,1060.734 2339.436,1079.698ZM2547.272,1177.963C2544.435,1181.361 2511.805,1190.335 2500.863,1182.057C2466.577,1156.122 2469.382,1172.631 2465.771,1177.777C2457.985,1161.598 2483.006,1133.587 2503.897,1170.134C2511.545,1183.513 2539.945,1182.089 2547.272,1177.963ZM2697.563,1260.927C2701.813,1268.181 2725.63,1283.717 2738.976,1276.012C2775.433,1254.962 2782.938,1291.763 2768.063,1301.818C2767.536,1295.554 2778.274,1282.705 2735.592,1287.84C2721.97,1289.479 2698.301,1265.292 2697.563,1260.927ZM2676.145,1244.048C2690.851,1246.499 2710.116,1307.58 2691.528,1370.07C2688.128,1381.5 2699.99,1395.468 2711.194,1402.39C2740.362,1420.413 2763.006,1435.191 2777.796,1450.1C2791.192,1463.603 2803.823,1474.102 2805.492,1485.571C2817.925,1571.029 2728.019,1596.118 2712.68,1538.14C2711.07,1532.056 2715.486,1516.931 2715.486,1516.931C2708.961,1549.803 2794.124,1540.253 2777.539,1498.584C2771.928,1484.487 2764.982,1448.506 2697.784,1440.029C2683.236,1438.194 2674.982,1422.475 2662.687,1404.937C2648.735,1385.037 2672.082,1330.545 2680.479,1301.033C2686.284,1280.634 2684.596,1265.41 2680.962,1256.058C2678.182,1248.906 2673.142,1245.482 2676.145,1244.048ZM2722.902,1320.626C2731.895,1324.309 2742.612,1319.172 2726.614,1305.116C2719.056,1298.476 2716.21,1296.365 2709.186,1296.495C2716.082,1288.532 2728.462,1288.223 2739.951,1299.018C2763.356,1321.011 2749.722,1337.711 2722.902,1320.626ZM2643.777,1223.618C2657.107,1227.572 2670.91,1236.639 2673.653,1254.244C2674.343,1258.678 2674.667,1263.754 2674.526,1269.07C2674.101,1285.081 2664.425,1299.29 2657.954,1312.655C2653.636,1321.573 2650.052,1325.043 2649.622,1329.4C2648.692,1338.815 2654.177,1350.132 2654.061,1354.559C2646.39,1348.372 2598.064,1336.076 2638.827,1300.478C2666.217,1276.558 2659.572,1243.577 2643.777,1223.618ZM2916.189,1387.749C2904.498,1389.139 2899.963,1359.046 2894.514,1329.546C2890.887,1309.914 2869.125,1307.126 2849.165,1319.285C2828.901,1331.629 2785.298,1365.118 2767.696,1374.63C2740.152,1389.513 2720.152,1374.733 2710.369,1354.31C2700.676,1334.072 2713.988,1300.343 2713.988,1300.343C2713.988,1300.343 2710.59,1330.862 2727.264,1343.577C2731.971,1347.167 2739.573,1354.642 2744.712,1357.589C2750.838,1361.102 2763.745,1354.496 2771.468,1352.43C2800.041,1344.786 2832.227,1306.425 2846.65,1299.839C2887.674,1281.106 2907.296,1307.94 2910.594,1344.983C2911.261,1352.464 2909.367,1352.961 2908.652,1358.742C2907.241,1370.169 2913.766,1383.411 2916.189,1387.749ZM2601.503,1212.636C2598.407,1218.197 2598.387,1232.222 2602.096,1238.749C2608.448,1249.926 2617.675,1237.765 2620.49,1235.741C2621.329,1253.766 2611.194,1271.667 2595.833,1251.456C2594.017,1249.067 2593.145,1249.81 2591.213,1246.292C2585.539,1235.964 2590.505,1217.389 2601.503,1212.636ZM2328.204,1036.777C2301.866,1100.746 2259.238,1020.981 2261.964,1017.165C2267.321,975.327 2327.625,934.027 2402.377,1035.918C2424.776,1066.449 2439.004,1103.731 2439.004,1103.731C2439.004,1103.731 2448.399,1140.039 2470.241,1148.181C2474.505,1149.771 2476.174,1148.019 2477.888,1147.54C2439.445,1170.563 2422.348,1106.878 2379.302,1057.826C2338.957,1011.851 2312.727,993.599 2312.727,993.599L2299.775,1007.786C2299.775,1007.786 2305.839,1026.471 2307.488,1030.688C2310.169,1037.542 2323.083,1036.072 2328.204,1036.777ZM2967.076,1294.163C2971.471,1296.882 2980.49,1306.242 2986.923,1302.667C2990.88,1300.468 3007.458,1289.929 3007.458,1289.929L3006.513,1270.742C3006.513,1270.742 2974.667,1268.1 2914.279,1277.834C2849.85,1288.22 2796.099,1326.417 2781.134,1284.18C2782.15,1285.64 2782.321,1288.054 2786.62,1289.545C2808.643,1297.184 2839.016,1275.183 2839.016,1275.183C2839.016,1275.183 2873.734,1255.511 2910.45,1246.247C3032.981,1215.333 3053.152,1285.584 3030.628,1321.246C3030.298,1325.924 2946.624,1360.249 2967.076,1294.163Z" style="fill:rgb(255,214,0);stroke:rgb(196,134,14);stroke-width:2.24px;"/>
        </g>
        <g transform="matrix(0.844325,0,0,1.739663,-402.06674,-1235.161713)">
            <path d="M2711.778,1476.579C2708.615,1476.499 2704.661,1476.44 2699.917,1476.401C2695.172,1476.361 2690.013,1476.302 2684.438,1476.223C2678.863,1476.144 2673.051,1476.084 2667.002,1476.045C2660.953,1476.005 2655.042,1475.966 2649.269,1475.926C2643.497,1475.887 2638.001,1475.906 2632.782,1475.985C2627.564,1476.065 2623.017,1476.183 2619.142,1476.341L2619.142,1511.569C2619.142,1518.29 2619.241,1524.162 2619.439,1529.183C2619.636,1534.204 2619.874,1538.533 2620.15,1542.171C2620.427,1545.808 2620.783,1548.853 2621.218,1551.304C2621.653,1553.755 2622.107,1555.811 2622.582,1557.472L2622.582,1557.946L2594.115,1557.946L2594.115,1557.472C2594.59,1555.811 2595.044,1553.755 2595.479,1551.304C2595.914,1548.853 2596.29,1545.808 2596.606,1542.171C2596.922,1538.533 2597.159,1534.204 2597.318,1529.183C2597.476,1524.162 2597.555,1518.29 2597.555,1511.569L2597.555,1434.353C2597.555,1427.631 2597.476,1421.76 2597.318,1416.739C2597.159,1411.718 2596.922,1407.369 2596.606,1403.692C2596.29,1400.015 2595.914,1396.951 2595.479,1394.499C2595.044,1392.048 2594.59,1389.992 2594.115,1388.331L2594.115,1387.857L2622.582,1387.857L2622.582,1388.331C2622.107,1389.992 2621.653,1392.048 2621.218,1394.499C2620.783,1396.951 2620.427,1400.015 2620.15,1403.692C2619.874,1407.369 2619.636,1411.718 2619.439,1416.739C2619.241,1421.76 2619.142,1427.631 2619.142,1434.353L2619.142,1464.717C2623.254,1464.876 2627.919,1464.974 2633.138,1465.014C2638.357,1465.053 2643.813,1465.053 2649.507,1465.014C2655.2,1464.974 2660.992,1464.915 2666.883,1464.836C2672.774,1464.757 2678.468,1464.658 2683.963,1464.539C2689.459,1464.421 2694.599,1464.282 2699.383,1464.124C2704.167,1463.966 2708.299,1463.808 2711.778,1463.65L2711.778,1434.353C2711.778,1427.631 2711.679,1421.76 2711.481,1416.739C2711.284,1411.718 2711.046,1407.369 2710.77,1403.692C2710.493,1400.015 2710.137,1396.951 2709.702,1394.499C2709.267,1392.048 2708.813,1389.992 2708.338,1388.331L2708.338,1387.857L2736.805,1387.857L2736.805,1388.331C2736.33,1389.992 2735.876,1392.048 2735.441,1394.499C2735.006,1396.951 2734.63,1400.015 2734.314,1403.692C2733.998,1407.369 2733.761,1411.718 2733.602,1416.739C2733.444,1421.76 2733.365,1427.631 2733.365,1434.353L2733.365,1511.569C2733.365,1518.29 2733.444,1524.162 2733.602,1529.183C2733.761,1534.204 2733.998,1538.533 2734.314,1542.171C2734.63,1545.808 2735.006,1548.853 2735.441,1551.304C2735.876,1553.755 2736.33,1555.811 2736.805,1557.472L2736.805,1557.946L2708.338,1557.946L2708.338,1557.472C2708.813,1555.811 2709.267,1553.755 2709.702,1551.304C2710.137,1548.853 2710.493,1545.808 2710.77,1542.171C2711.046,1538.533 2711.284,1534.204 2711.481,1529.183C2711.679,1524.162 2711.778,1518.29 2711.778,1511.569L2711.778,1476.579Z" style="fill-rule:nonzero;stroke:black;stroke-width:7.64px;stroke-linecap:butt;stroke-linejoin:miter;stroke-miterlimit:2;"/>
            <path d="M2825.171,1560.081C2816.393,1560.081 2808.17,1558.697 2800.499,1555.93C2792.829,1553.162 2786.147,1549.11 2780.454,1543.772C2774.761,1538.435 2770.273,1531.832 2766.992,1523.964C2763.71,1516.096 2762.069,1507.101 2762.069,1496.98C2762.069,1488.044 2763.572,1479.761 2766.576,1472.131C2769.581,1464.5 2773.733,1457.877 2779.031,1452.263C2784.329,1446.649 2790.516,1442.26 2797.593,1439.097C2804.671,1435.934 2812.321,1434.353 2820.545,1434.353C2828.689,1434.353 2836.241,1435.756 2843.2,1438.563C2850.158,1441.371 2856.188,1445.443 2861.288,1450.78C2866.388,1456.118 2870.421,1462.721 2873.386,1470.589C2876.352,1478.457 2877.953,1487.412 2878.19,1497.454C2869.255,1497.296 2860.319,1497.177 2851.384,1497.098C2842.448,1497.019 2833.157,1496.98 2823.51,1496.98C2816.631,1496.98 2809.929,1497.019 2803.405,1497.098C2796.882,1497.177 2791.01,1497.296 2785.792,1497.454C2786.266,1505.678 2787.551,1513.111 2789.646,1519.753C2791.742,1526.395 2794.628,1532.069 2798.305,1536.774C2801.982,1541.479 2806.45,1545.097 2811.708,1547.627C2816.967,1550.157 2822.917,1551.422 2829.559,1551.422C2834.146,1551.422 2838.475,1550.889 2842.547,1549.821C2846.62,1548.754 2850.316,1547.271 2853.637,1545.373C2856.959,1543.476 2859.924,1541.242 2862.533,1538.672C2865.143,1536.102 2867.357,1533.314 2869.176,1530.31L2870.599,1531.021L2861.822,1552.134C2857.552,1554.348 2852.451,1556.226 2846.521,1557.768C2840.59,1559.31 2833.473,1560.081 2825.171,1560.081ZM2809.395,1487.728C2817.303,1487.728 2825.23,1487.708 2833.177,1487.669C2841.124,1487.629 2848.339,1487.491 2854.823,1487.254C2854.112,1480.374 2852.768,1474.206 2850.791,1468.75C2848.814,1463.294 2846.283,1458.668 2843.2,1454.873C2840.116,1451.077 2836.478,1448.151 2832.287,1446.095C2828.096,1444.039 2823.47,1443.011 2818.41,1443.011C2813.823,1443.011 2809.613,1444.02 2805.778,1446.036C2801.942,1448.052 2798.602,1450.958 2795.755,1454.754C2792.908,1458.55 2790.615,1463.195 2788.875,1468.691C2787.136,1474.187 2786.108,1480.453 2785.792,1487.491C2789.35,1487.649 2793.106,1487.728 2797.06,1487.728L2809.395,1487.728Z" style="fill-rule:nonzero;stroke:black;stroke-width:7.64px;stroke-linecap:butt;stroke-linejoin:miter;stroke-miterlimit:2;"/>
            <path d="M2903.691,1482.865C2903.691,1476.144 2903.593,1470.272 2903.395,1465.251C2903.197,1460.23 2902.96,1455.901 2902.683,1452.263C2902.407,1448.626 2902.051,1445.581 2901.616,1443.13C2901.181,1440.679 2900.726,1438.623 2900.252,1436.962L2900.252,1436.488L2927.651,1436.488L2927.651,1436.962C2927.018,1438.781 2926.485,1440.995 2926.05,1443.604C2925.615,1446.214 2925.279,1449.575 2925.042,1453.686C2927.967,1451.235 2931.012,1448.823 2934.175,1446.451C2937.338,1444.079 2940.58,1441.983 2943.901,1440.165C2947.222,1438.346 2950.602,1436.883 2954.042,1435.776C2957.482,1434.669 2960.941,1434.116 2964.421,1434.116C2966.556,1434.116 2968.414,1434.214 2969.995,1434.412C2971.577,1434.61 2973,1434.887 2974.265,1435.242C2975.531,1435.598 2976.677,1435.994 2977.705,1436.428C2978.733,1436.863 2979.722,1437.279 2980.67,1437.674L2974.858,1460.329L2972.842,1459.854C2971.893,1456.375 2970.114,1453.588 2967.505,1451.492C2964.895,1449.397 2961.337,1448.349 2956.83,1448.349C2954.378,1448.349 2951.808,1448.784 2949.12,1449.654C2946.431,1450.524 2943.703,1451.729 2940.936,1453.271C2938.168,1454.813 2935.4,1456.592 2932.633,1458.609C2929.865,1460.625 2927.177,1462.741 2924.567,1464.955C2924.409,1467.248 2924.33,1469.739 2924.33,1472.427L2924.33,1511.569C2924.33,1518.29 2924.409,1524.162 2924.567,1529.183C2924.725,1534.204 2924.963,1538.533 2925.279,1542.171C2925.595,1545.808 2925.951,1548.853 2926.346,1551.304C2926.742,1553.755 2927.177,1555.811 2927.651,1557.472L2927.651,1557.946L2900.252,1557.946L2900.252,1557.472C2900.726,1555.811 2901.181,1553.755 2901.616,1551.304C2902.051,1548.853 2902.407,1545.808 2902.683,1542.171C2902.96,1538.533 2903.197,1534.204 2903.395,1529.183C2903.593,1524.162 2903.691,1518.29 2903.691,1511.569L2903.691,1482.865Z" style="fill-rule:nonzero;stroke:black;stroke-width:7.64px;stroke-linecap:butt;stroke-linejoin:miter;stroke-miterlimit:2;"/>
            <path d="M3019.575,1442.537C3024.557,1439.848 3029.894,1437.812 3035.588,1436.428C3041.281,1435.045 3047.093,1434.353 3053.024,1434.353C3061.801,1434.353 3069.926,1435.835 3077.398,1438.801C3084.871,1441.766 3091.335,1445.977 3096.791,1451.433C3102.247,1456.889 3106.517,1463.531 3109.601,1471.36C3112.685,1479.188 3114.227,1487.965 3114.227,1497.691C3114.227,1505.836 3112.824,1513.664 3110.016,1521.177C3107.209,1528.689 3103.018,1535.331 3097.444,1541.103C3091.869,1546.876 3084.95,1551.482 3076.687,1554.922C3068.423,1558.361 3058.836,1560.081 3047.923,1560.081C3046.658,1560.081 3044.978,1560.042 3042.882,1559.963C3040.787,1559.883 3038.474,1559.725 3035.943,1559.488C3033.413,1559.251 3030.725,1558.935 3027.878,1558.539C3025.031,1558.144 3022.264,1557.63 3019.575,1556.997C3015.78,1556.127 3011.964,1555.159 3008.129,1554.091C3004.294,1553.024 3000.637,1551.818 2997.157,1550.474C2997.474,1549.287 2997.751,1547.291 2997.988,1544.484C2998.225,1541.677 2998.403,1538.652 2998.522,1535.41C2998.64,1532.168 2998.739,1528.985 2998.818,1525.862C2998.897,1522.738 2998.937,1520.228 2998.937,1518.33L2998.937,1426.999C2998.937,1420.278 2998.838,1414.406 2998.64,1409.385C2998.442,1404.364 2998.205,1400.034 2997.928,1396.397C2997.652,1392.76 2997.296,1389.715 2996.861,1387.264C2996.426,1384.813 2995.971,1382.757 2995.497,1381.096L2995.497,1380.622L3022.896,1380.622L3022.896,1381.096C3022.422,1382.757 3021.987,1384.813 3021.591,1387.264C3021.196,1389.715 3020.84,1392.76 3020.524,1396.397C3020.208,1400.034 3019.97,1404.364 3019.812,1409.385C3019.654,1414.406 3019.575,1420.278 3019.575,1426.999L3019.575,1442.537ZM3019.575,1516.432C3019.575,1522.837 3019.634,1528.135 3019.753,1532.326C3019.872,1536.517 3020.05,1539.878 3020.287,1542.408C3023.608,1544.938 3028.115,1547.073 3033.808,1548.813C3039.502,1550.553 3045.749,1551.422 3052.549,1551.422C3058.163,1551.422 3063.303,1550.315 3067.969,1548.101C3072.634,1545.887 3076.627,1542.685 3079.948,1538.494C3083.27,1534.303 3085.859,1529.203 3087.717,1523.193C3089.576,1517.183 3090.505,1510.383 3090.505,1502.792C3090.505,1494.252 3089.714,1486.324 3088.133,1479.01C3086.551,1471.696 3084.1,1465.37 3080.779,1460.032C3077.458,1454.695 3073.227,1450.524 3068.087,1447.519C3062.947,1444.514 3056.819,1443.011 3049.702,1443.011C3043.693,1443.011 3038.078,1444.237 3032.86,1446.688C3027.641,1449.14 3023.213,1452.698 3019.575,1457.363L3019.575,1516.432Z" style="fill-rule:nonzero;stroke:black;stroke-width:7.64px;stroke-linecap:butt;stroke-linejoin:miter;stroke-miterlimit:2;"/>
            <path d="M3131.307,1522.956C3131.307,1516.709 3132.592,1511.292 3135.162,1506.706C3137.732,1502.12 3141.152,1498.205 3145.422,1494.963C3149.692,1491.721 3154.555,1489.092 3160.011,1487.076C3165.467,1485.059 3171.121,1483.478 3176.973,1482.331C3182.824,1481.185 3188.597,1480.394 3194.29,1479.959C3199.983,1479.524 3205.202,1479.267 3209.947,1479.188L3209.947,1473.139C3209.947,1467.92 3209.275,1463.413 3207.93,1459.617C3206.586,1455.821 3204.688,1452.678 3202.237,1450.187C3199.786,1447.697 3196.84,1445.838 3193.4,1444.613C3189.961,1443.387 3186.185,1442.774 3182.073,1442.774C3179.226,1442.774 3176.419,1443.011 3173.652,1443.486C3170.884,1443.96 3168.018,1444.751 3165.052,1445.858C3162.087,1446.965 3158.964,1448.468 3155.682,1450.365C3152.4,1452.263 3148.862,1454.675 3145.066,1457.601L3143.88,1456.889L3151.946,1440.165C3154.555,1438.979 3157.125,1438.01 3159.655,1437.259C3162.186,1436.508 3164.756,1435.895 3167.365,1435.42C3169.975,1434.946 3172.643,1434.61 3175.371,1434.412C3178.1,1434.214 3180.966,1434.116 3183.971,1434.116C3192.274,1434.116 3199.371,1435.124 3205.262,1437.14C3211.153,1439.157 3215.976,1441.924 3219.732,1445.443C3223.488,1448.962 3226.236,1453.074 3227.976,1457.779C3229.715,1462.484 3230.585,1467.525 3230.585,1472.902L3230.585,1511.569C3230.585,1518.29 3230.684,1524.162 3230.882,1529.183C3231.079,1534.204 3231.317,1538.533 3231.593,1542.171C3231.87,1545.808 3232.226,1548.853 3232.661,1551.304C3233.096,1553.755 3233.551,1555.811 3234.025,1557.472L3234.025,1557.946L3207.812,1557.946L3207.812,1557.472C3208.207,1556.206 3208.504,1554.783 3208.701,1553.202C3208.899,1551.62 3209.077,1549.722 3209.235,1547.508C3207.575,1548.932 3205.617,1550.395 3203.364,1551.897C3201.11,1553.399 3198.54,1554.763 3195.654,1555.989C3192.768,1557.215 3189.565,1558.203 3186.047,1558.954C3182.528,1559.706 3178.673,1560.081 3174.482,1560.081C3160.723,1560.081 3150.087,1556.859 3142.575,1550.414C3135.063,1543.97 3131.307,1534.817 3131.307,1522.956ZM3209.947,1488.44C3202.751,1488.519 3195.832,1488.934 3189.19,1489.685C3182.547,1490.436 3176.676,1491.998 3171.576,1494.37C3166.476,1496.743 3162.403,1500.123 3159.359,1504.512C3156.315,1508.9 3154.792,1514.732 3154.792,1522.007C3154.792,1531.338 3157.125,1538.454 3161.79,1543.357C3166.456,1548.26 3172.9,1550.711 3181.124,1550.711C3184.92,1550.711 3188.379,1550.177 3191.503,1549.11C3194.626,1548.042 3197.394,1546.698 3199.805,1545.077C3202.217,1543.456 3204.253,1541.677 3205.914,1539.739C3207.575,1537.802 3208.84,1535.924 3209.71,1534.105C3209.868,1531.1 3209.947,1527.759 3209.947,1524.082L3209.947,1488.44Z" style="fill-rule:nonzero;stroke:black;stroke-width:7.64px;stroke-linecap:butt;stroke-linejoin:miter;stroke-miterlimit:2;"/>
            <path d="M3267.118,1426.999C3267.118,1420.278 3267.019,1414.406 3266.821,1409.385C3266.623,1404.364 3266.386,1400.034 3266.109,1396.397C3265.833,1392.76 3265.477,1389.715 3265.042,1387.264C3264.607,1384.813 3264.152,1382.757 3263.678,1381.096L3263.678,1380.622L3291.077,1380.622L3291.077,1381.096C3290.603,1382.757 3290.168,1384.813 3289.772,1387.264C3289.377,1389.715 3289.021,1392.76 3288.705,1396.397C3288.389,1400.034 3288.151,1404.364 3287.993,1409.385C3287.835,1414.406 3287.756,1420.278 3287.756,1426.999L3287.756,1511.569C3287.756,1518.29 3287.835,1524.162 3287.993,1529.183C3288.151,1534.204 3288.389,1538.533 3288.705,1542.171C3289.021,1545.808 3289.377,1548.853 3289.772,1551.304C3290.168,1553.755 3290.603,1555.811 3291.077,1557.472L3291.077,1557.946L3263.678,1557.946L3263.678,1557.472C3264.152,1555.811 3264.607,1553.755 3265.042,1551.304C3265.477,1548.853 3265.833,1545.808 3266.109,1542.171C3266.386,1538.533 3266.623,1534.204 3266.821,1529.183C3267.019,1524.162 3267.118,1518.29 3267.118,1511.569L3267.118,1426.999Z" style="fill-rule:nonzero;stroke:black;stroke-width:7.64px;stroke-linecap:butt;stroke-linejoin:miter;stroke-miterlimit:2;"/>
            <path d="M3349.671,1398.058C3349.513,1406.914 3349.355,1415.494 3349.197,1423.796C3349.118,1427.355 3349.058,1430.992 3349.019,1434.709C3348.979,1438.425 3348.94,1442.082 3348.9,1445.68C3348.861,1449.278 3348.821,1452.718 3348.782,1455.999C3348.742,1459.281 3348.722,1462.187 3348.722,1464.717C3348.722,1470.015 3348.762,1476.42 3348.841,1483.932C3348.92,1491.445 3349.019,1499.154 3349.138,1507.062C3349.256,1514.969 3349.434,1522.56 3349.671,1529.835C3349.909,1537.11 3350.185,1543.159 3350.502,1547.983C3351.609,1548.141 3353.091,1548.319 3354.95,1548.517C3356.808,1548.714 3358.765,1548.872 3360.821,1548.991C3362.877,1549.11 3364.893,1549.208 3366.87,1549.287C3368.847,1549.367 3370.507,1549.406 3371.852,1549.406C3377.387,1549.406 3383.06,1549.03 3388.872,1548.279C3394.684,1547.528 3400.299,1546.124 3405.715,1544.069C3411.132,1542.013 3416.232,1539.186 3421.016,1535.588C3425.8,1531.99 3429.991,1527.344 3433.589,1521.651C3437.187,1515.958 3440.014,1509.098 3442.07,1501.072C3444.126,1493.046 3445.154,1483.577 3445.154,1472.664C3445.154,1460.566 3443.691,1449.792 3440.765,1440.343C3437.839,1430.893 3433.55,1422.927 3427.896,1416.442C3422.242,1409.958 3415.244,1405.036 3406.901,1401.675C3398.559,1398.315 3388.971,1396.634 3378.138,1396.634C3376.003,1396.634 3373.591,1396.694 3370.903,1396.812C3368.214,1396.931 3365.546,1397.049 3362.897,1397.168C3360.248,1397.287 3357.757,1397.445 3355.424,1397.642C3353.091,1397.84 3351.174,1397.979 3349.671,1398.058ZM3323.695,1387.383C3325.514,1387.462 3327.214,1387.541 3328.796,1387.62C3330.14,1387.699 3331.524,1387.758 3332.947,1387.798C3334.37,1387.837 3335.517,1387.857 3336.387,1387.857C3337.889,1387.857 3340.4,1387.778 3343.919,1387.62C3347.437,1387.462 3351.45,1387.303 3355.958,1387.145C3360.465,1386.987 3365.15,1386.829 3370.013,1386.671C3374.876,1386.513 3379.443,1386.434 3383.713,1386.434C3395.179,1386.434 3406.091,1387.857 3416.45,1390.704C3426.808,1393.55 3435.902,1398.216 3443.73,1404.7C3451.559,1411.184 3457.766,1419.684 3462.352,1430.201C3466.939,1440.718 3469.232,1453.647 3469.232,1468.987C3469.232,1479.979 3468.026,1489.863 3465.614,1498.64C3463.202,1507.418 3459.822,1515.167 3455.473,1521.888C3451.124,1528.61 3445.925,1534.362 3439.875,1539.146C3433.826,1543.93 3427.144,1547.864 3419.83,1550.948C3412.516,1554.032 3404.707,1556.286 3396.404,1557.709C3388.101,1559.132 3379.522,1559.844 3370.666,1559.844C3367.503,1559.844 3363.687,1559.745 3359.22,1559.547C3354.752,1559.35 3350.264,1559.132 3345.757,1558.895C3341.25,1558.658 3337,1558.44 3333.006,1558.243C3329.013,1558.045 3325.909,1557.946 3323.695,1557.946L3323.695,1557.472C3324.17,1555.811 3324.624,1553.755 3325.059,1551.304C3325.494,1548.853 3325.87,1545.808 3326.186,1542.171C3326.503,1538.533 3326.74,1534.204 3326.898,1529.183C3327.056,1524.162 3327.135,1518.29 3327.135,1511.569L3327.135,1434.353C3327.135,1427.631 3327.056,1421.721 3326.898,1416.62C3326.74,1411.52 3326.503,1407.131 3326.186,1403.454C3325.87,1399.777 3325.494,1396.674 3325.059,1394.143C3324.624,1391.613 3324.17,1389.518 3323.695,1387.857L3323.695,1387.383Z" style="fill-rule:nonzero;stroke:black;stroke-width:7.64px;stroke-linecap:butt;stroke-linejoin:miter;stroke-miterlimit:2;"/>
            <path d="M3551.548,1560.081C3542.771,1560.081 3534.547,1558.697 3526.877,1555.93C3519.207,1553.162 3512.525,1549.11 3506.832,1543.772C3501.138,1538.435 3496.651,1531.832 3493.369,1523.964C3490.088,1516.096 3488.447,1507.101 3488.447,1496.98C3488.447,1488.044 3489.949,1479.761 3492.954,1472.131C3495.959,1464.5 3500.11,1457.877 3505.408,1452.263C3510.706,1446.649 3516.894,1442.26 3523.971,1439.097C3531.048,1435.934 3538.699,1434.353 3546.922,1434.353C3555.067,1434.353 3562.619,1435.756 3569.577,1438.563C3576.536,1441.371 3582.565,1445.443 3587.666,1450.78C3592.766,1456.118 3596.799,1462.721 3599.764,1470.589C3602.729,1478.457 3604.331,1487.412 3604.568,1497.454C3595.632,1497.296 3586.697,1497.177 3577.762,1497.098C3568.826,1497.019 3559.535,1496.98 3549.888,1496.98C3543.008,1496.98 3536.307,1497.019 3529.783,1497.098C3523.259,1497.177 3517.388,1497.296 3512.169,1497.454C3512.644,1505.678 3513.929,1513.111 3516.024,1519.753C3518.12,1526.395 3521.006,1532.069 3524.683,1536.774C3528.36,1541.479 3532.827,1545.097 3538.086,1547.627C3543.344,1550.157 3549.295,1551.422 3555.937,1551.422C3560.523,1551.422 3564.853,1550.889 3568.925,1549.821C3572.997,1548.754 3576.694,1547.271 3580.015,1545.373C3583.336,1543.476 3586.302,1541.242 3588.911,1538.672C3591.52,1536.102 3593.735,1533.314 3595.553,1530.31L3596.977,1531.021L3588.199,1552.134C3583.929,1554.348 3578.829,1556.226 3572.898,1557.768C3566.968,1559.31 3559.851,1560.081 3551.548,1560.081ZM3535.773,1487.728C3543.68,1487.728 3551.608,1487.708 3559.555,1487.669C3567.502,1487.629 3574.717,1487.491 3581.201,1487.254C3580.49,1480.374 3579.145,1474.206 3577.168,1468.75C3575.192,1463.294 3572.661,1458.668 3569.577,1454.873C3566.493,1451.077 3562.856,1448.151 3558.665,1446.095C3554.474,1444.039 3549.848,1443.011 3544.787,1443.011C3540.201,1443.011 3535.99,1444.02 3532.155,1446.036C3528.32,1448.052 3524.979,1450.958 3522.133,1454.754C3519.286,1458.55 3516.993,1463.195 3515.253,1468.691C3513.514,1474.187 3512.486,1480.453 3512.169,1487.491C3515.728,1487.649 3519.484,1487.728 3523.437,1487.728L3535.773,1487.728Z" style="fill-rule:nonzero;stroke:black;stroke-width:7.64px;stroke-linecap:butt;stroke-linejoin:miter;stroke-miterlimit:2;"/>
            <path d="M3710.132,1447.4L3741.801,1527.107L3768.252,1461.04C3768.805,1459.617 3769.438,1458.016 3770.15,1456.237C3770.861,1454.457 3771.494,1452.639 3772.047,1450.78C3772.601,1448.922 3773.075,1447.143 3773.471,1445.443C3773.866,1443.743 3774.064,1442.221 3774.064,1440.876C3774.064,1439.848 3773.985,1438.998 3773.827,1438.326C3773.668,1437.654 3773.51,1437.199 3773.352,1436.962L3773.352,1436.488L3794.702,1436.488L3794.702,1436.962C3793.279,1438.465 3791.559,1440.936 3789.543,1444.375C3787.526,1447.815 3785.134,1452.817 3782.367,1459.38L3740.259,1559.607L3733.499,1559.607L3702.897,1485.356L3672.295,1559.607L3665.534,1559.607L3626.63,1465.192C3625.206,1461.713 3623.684,1458.372 3622.063,1455.169C3620.442,1451.967 3618.9,1449.1 3617.437,1446.57C3615.974,1444.039 3614.689,1441.924 3613.582,1440.224C3612.475,1438.524 3611.724,1437.437 3611.329,1436.962L3611.329,1436.488L3642.879,1436.488L3642.879,1436.962C3642.721,1437.358 3642.603,1437.951 3642.523,1438.741C3642.444,1439.532 3642.405,1440.244 3642.405,1440.876C3642.405,1443.328 3642.78,1446.036 3643.532,1449.001C3644.283,1451.967 3645.528,1455.663 3647.268,1460.092L3673.718,1527.107L3705.625,1447.4L3710.132,1447.4Z" style="fill-rule:nonzero;stroke:black;stroke-width:7.64px;stroke-linecap:butt;stroke-linejoin:miter;stroke-miterlimit:2;"/>
        </g>
        <g transform="matrix(0.517729,-0.005335,0.002589,1.066738,1329.716285,-384.219167)">
            <path d="M2060.685,1833.438L2060.046,1833.529C2059.833,1832.83 2059.491,1832.085 2059.019,1831.294C2058.548,1830.503 2057.94,1829.773 2057.194,1829.104C2056.449,1828.435 2055.552,1827.88 2054.502,1827.439C2053.453,1826.997 2052.244,1826.777 2050.875,1826.777C2049.932,1826.777 2049.043,1826.914 2048.206,1827.188C2047.37,1827.461 2046.64,1827.864 2046.016,1828.397C2045.393,1828.929 2044.899,1829.59 2044.534,1830.381C2044.169,1831.172 2043.986,1832.1 2043.986,1833.164C2043.986,1834.655 2044.45,1836.077 2045.378,1837.43C2046.305,1838.784 2047.469,1840.122 2048.868,1841.445C2050.267,1842.768 2051.78,1844.099 2053.407,1845.437C2055.035,1846.776 2056.548,1848.175 2057.947,1849.635C2059.346,1851.095 2060.51,1852.654 2061.437,1854.311C2062.365,1855.969 2062.829,1857.756 2062.829,1859.672C2062.829,1861.223 2062.555,1862.737 2062.008,1864.212C2061.46,1865.687 2060.616,1867.002 2059.476,1868.158C2058.335,1869.314 2056.875,1870.249 2055.096,1870.964C2053.316,1871.679 2051.195,1872.036 2048.731,1872.036C2047.271,1872.036 2045.91,1871.899 2044.648,1871.626C2043.385,1871.352 2042.229,1871.01 2041.18,1870.599C2040.131,1870.189 2039.188,1869.732 2038.351,1869.23C2037.515,1868.729 2036.777,1868.25 2036.139,1867.793L2036.595,1859.125L2037.325,1859.125C2037.629,1860.554 2038.085,1861.862 2038.694,1863.048C2039.302,1864.235 2040.055,1865.246 2040.952,1866.082C2041.849,1866.919 2042.876,1867.573 2044.032,1868.044C2045.187,1868.516 2046.45,1868.751 2047.818,1868.751C2050.069,1868.751 2051.856,1868.128 2053.179,1866.881C2054.502,1865.634 2055.164,1864.006 2055.164,1861.999C2055.164,1860.387 2054.715,1858.904 2053.818,1857.551C2052.921,1856.197 2051.788,1854.897 2050.419,1853.65C2049.05,1852.403 2047.583,1851.156 2046.016,1849.909C2044.45,1848.661 2042.982,1847.331 2041.614,1845.916C2040.245,1844.502 2039.112,1842.951 2038.215,1841.263C2037.317,1839.575 2036.869,1837.651 2036.869,1835.491C2036.869,1833.727 2037.196,1832.107 2037.85,1830.632C2038.504,1829.157 2039.416,1827.895 2040.587,1826.845C2041.758,1825.796 2043.15,1824.982 2044.762,1824.404C2046.374,1823.827 2048.138,1823.538 2050.054,1823.538C2052.579,1823.538 2054.685,1823.804 2056.373,1824.336C2058.061,1824.868 2059.346,1825.378 2060.228,1825.864L2060.685,1833.438Z" style="fill-rule:nonzero;"/>
            <path d="M2073.14,1820.618C2073.14,1818.032 2073.102,1815.774 2073.026,1813.842C2072.95,1811.911 2072.859,1810.246 2072.752,1808.847C2072.646,1807.447 2072.509,1806.276 2072.342,1805.333C2072.174,1804.391 2071.999,1803.6 2071.817,1802.961L2071.817,1802.779L2082.356,1802.779L2082.356,1802.961C2082.174,1803.6 2082.006,1804.391 2081.854,1805.333C2081.702,1806.276 2081.565,1807.447 2081.444,1808.847C2081.322,1810.246 2081.231,1811.911 2081.17,1813.842C2081.109,1815.774 2081.079,1818.032 2081.079,1820.618L2081.079,1843.339L2095.998,1829.971C2098.614,1827.689 2099.922,1825.788 2099.922,1824.268L2110.506,1824.268L2110.506,1824.45C2109.716,1824.693 2108.963,1825.005 2108.248,1825.385C2107.533,1825.766 2106.818,1826.214 2106.104,1826.731C2105.389,1827.248 2104.644,1827.834 2103.868,1828.488C2103.092,1829.142 2102.248,1829.879 2101.336,1830.701L2087.968,1842.882L2106.309,1864.554C2106.856,1865.223 2107.45,1865.9 2108.088,1866.584C2108.727,1867.269 2109.366,1867.9 2110.005,1868.478C2110.643,1869.056 2111.267,1869.557 2111.875,1869.983C2112.483,1870.409 2113.046,1870.683 2113.563,1870.805L2113.563,1870.987L2100.332,1870.987C2100.332,1870.196 2100.127,1869.375 2099.716,1868.523C2099.306,1867.672 2098.568,1866.592 2097.503,1865.284L2081.079,1845.757L2081.079,1853.148C2081.079,1855.733 2081.109,1857.992 2081.17,1859.923C2081.231,1861.855 2081.322,1863.52 2081.444,1864.919C2081.565,1866.318 2081.702,1867.489 2081.854,1868.432C2082.006,1869.375 2082.174,1870.166 2082.356,1870.805L2082.356,1870.987L2071.817,1870.987L2071.817,1870.805C2071.999,1870.166 2072.174,1869.375 2072.342,1868.432C2072.509,1867.489 2072.646,1866.318 2072.752,1864.919C2072.859,1863.52 2072.95,1861.855 2073.026,1859.923C2073.102,1857.992 2073.14,1855.733 2073.14,1853.148L2073.14,1820.618Z" style="fill-rule:nonzero;"/>
            <path d="M2125.289,1855.018C2125.289,1859.033 2126.087,1861.984 2127.684,1863.87C2129.281,1865.755 2131.433,1866.698 2134.14,1866.698C2135.113,1866.698 2136.208,1866.493 2137.425,1866.082C2138.641,1865.672 2139.896,1865.124 2141.189,1864.44C2142.482,1863.756 2143.774,1862.957 2145.067,1862.045C2146.36,1861.132 2147.553,1860.159 2148.648,1859.125C2148.709,1858.243 2148.74,1857.307 2148.74,1856.319L2148.74,1842.107C2148.74,1839.521 2148.702,1837.263 2148.626,1835.332C2148.55,1833.4 2148.458,1831.735 2148.352,1830.336C2148.245,1828.937 2148.109,1827.765 2147.941,1826.823C2147.774,1825.88 2147.599,1825.089 2147.417,1824.45L2147.417,1824.268L2157.956,1824.268L2157.956,1824.45C2157.773,1825.089 2157.606,1825.88 2157.454,1826.823C2157.302,1827.765 2157.165,1828.937 2157.043,1830.336C2156.922,1831.735 2156.83,1833.4 2156.77,1835.332C2156.709,1837.263 2156.678,1839.521 2156.678,1842.107L2156.678,1853.148C2156.678,1855.733 2156.709,1857.992 2156.77,1859.923C2156.83,1861.855 2156.922,1863.52 2157.043,1864.919C2157.165,1866.318 2157.302,1867.489 2157.454,1868.432C2157.606,1869.375 2157.773,1870.166 2157.956,1870.805L2157.956,1870.987L2147.417,1870.987L2147.417,1870.805C2147.599,1870.044 2147.789,1869.071 2147.987,1867.885C2148.185,1866.698 2148.329,1865.147 2148.42,1863.231C2147.173,1864.295 2145.827,1865.345 2144.383,1866.379C2142.938,1867.413 2141.432,1868.341 2139.866,1869.162C2138.299,1869.983 2136.718,1870.645 2135.121,1871.147C2133.524,1871.649 2131.95,1871.899 2130.399,1871.899C2128.026,1871.899 2126.011,1871.489 2124.353,1870.668C2122.696,1869.846 2121.342,1868.767 2120.293,1867.428C2119.243,1866.09 2118.483,1864.569 2118.012,1862.866C2117.54,1861.163 2117.304,1859.414 2117.304,1857.619L2117.304,1842.107C2117.304,1839.521 2117.274,1837.263 2117.213,1835.332C2117.152,1833.4 2117.061,1831.735 2116.939,1830.336C2116.818,1828.937 2116.681,1827.765 2116.529,1826.823C2116.377,1825.88 2116.209,1825.089 2116.027,1824.45L2116.027,1824.268L2126.566,1824.268L2126.566,1824.45C2126.384,1825.089 2126.216,1825.88 2126.064,1826.823C2125.912,1827.765 2125.775,1828.937 2125.654,1830.336C2125.532,1831.735 2125.441,1833.4 2125.38,1835.332C2125.319,1837.263 2125.289,1839.521 2125.289,1842.107L2125.289,1855.018Z" style="fill-rule:nonzero;"/>
            <path d="M2201.116,1840.236C2201.116,1838.229 2200.911,1836.495 2200.501,1835.035C2200.09,1833.575 2199.497,1832.366 2198.721,1831.408C2197.946,1830.45 2197.01,1829.735 2195.915,1829.263C2194.82,1828.792 2193.604,1828.556 2192.265,1828.556C2191.353,1828.556 2190.334,1828.739 2189.209,1829.104C2188.083,1829.469 2186.92,1829.963 2185.718,1830.587C2184.517,1831.21 2183.315,1831.933 2182.114,1832.754C2180.912,1833.575 2179.779,1834.457 2178.715,1835.4C2178.654,1836.373 2178.624,1837.415 2178.624,1838.525L2178.624,1853.148C2178.624,1855.733 2178.654,1857.992 2178.715,1859.923C2178.776,1861.855 2178.867,1863.52 2178.989,1864.919C2179.11,1866.318 2179.247,1867.489 2179.399,1868.432C2179.551,1869.375 2179.719,1870.166 2179.901,1870.805L2179.901,1870.987L2169.362,1870.987L2169.362,1870.805C2169.544,1870.166 2169.719,1869.375 2169.887,1868.432C2170.054,1867.489 2170.191,1866.318 2170.297,1864.919C2170.404,1863.52 2170.495,1861.855 2170.571,1859.923C2170.647,1857.992 2170.685,1855.733 2170.685,1853.148L2170.685,1842.107C2170.685,1839.521 2170.647,1837.263 2170.571,1835.332C2170.495,1833.4 2170.404,1831.735 2170.297,1830.336C2170.191,1828.937 2170.054,1827.765 2169.887,1826.823C2169.719,1825.88 2169.544,1825.089 2169.362,1824.45L2169.362,1824.268L2179.901,1824.268L2179.901,1824.45C2179.658,1825.15 2179.468,1826.039 2179.331,1827.119C2179.194,1828.199 2179.049,1829.56 2178.897,1831.203C2180.114,1830.229 2181.422,1829.271 2182.821,1828.328C2184.22,1827.385 2185.657,1826.549 2187.133,1825.819C2188.608,1825.089 2190.091,1824.496 2191.581,1824.039C2193.071,1823.583 2194.547,1823.355 2196.007,1823.355C2197.74,1823.355 2199.276,1823.583 2200.615,1824.039C2201.953,1824.496 2203.124,1825.119 2204.128,1825.91C2205.131,1826.701 2205.975,1827.629 2206.66,1828.693C2207.344,1829.758 2207.869,1830.898 2208.234,1832.115C2209.481,1831.05 2210.842,1829.993 2212.317,1828.944C2213.792,1827.895 2215.313,1826.959 2216.88,1826.138C2218.446,1825.317 2220.043,1824.648 2221.67,1824.131C2223.298,1823.614 2224.887,1823.355 2226.438,1823.355C2228.811,1823.355 2230.826,1823.766 2232.483,1824.587C2234.141,1825.408 2235.494,1826.488 2236.544,1827.826C2237.593,1829.165 2238.354,1830.693 2238.825,1832.412C2239.297,1834.13 2239.532,1835.871 2239.532,1837.636L2239.532,1853.148C2239.532,1855.733 2239.563,1857.992 2239.623,1859.923C2239.684,1861.855 2239.776,1863.52 2239.897,1864.919C2240.019,1866.318 2240.163,1867.489 2240.331,1868.432C2240.498,1869.375 2240.673,1870.166 2240.855,1870.805L2240.855,1870.987L2230.27,1870.987L2230.27,1870.805C2230.453,1870.166 2230.628,1869.375 2230.795,1868.432C2230.962,1867.489 2231.107,1866.318 2231.229,1864.919C2231.35,1863.52 2231.442,1861.855 2231.502,1859.923C2231.563,1857.992 2231.594,1855.733 2231.594,1853.148L2231.594,1840.236C2231.594,1836.221 2230.788,1833.271 2229.176,1831.385C2227.563,1829.499 2225.404,1828.556 2222.697,1828.556C2221.754,1828.556 2220.712,1828.739 2219.572,1829.104C2218.431,1829.469 2217.252,1829.971 2216.036,1830.609C2214.819,1831.248 2213.602,1831.986 2212.386,1832.822C2211.169,1833.659 2210.028,1834.548 2208.964,1835.491C2209.025,1835.856 2209.055,1836.221 2209.055,1836.586L2209.055,1853.148C2209.055,1855.733 2209.093,1857.992 2209.169,1859.923C2209.245,1861.855 2209.336,1863.52 2209.443,1864.919C2209.549,1866.318 2209.686,1867.489 2209.854,1868.432C2210.021,1869.375 2210.196,1870.166 2210.378,1870.805L2210.378,1870.987L2199.839,1870.987L2199.839,1870.805C2200.022,1870.166 2200.189,1869.375 2200.341,1868.432C2200.493,1867.489 2200.63,1866.318 2200.751,1864.919C2200.873,1863.52 2200.964,1861.855 2201.025,1859.923C2201.086,1857.992 2201.116,1855.733 2201.116,1853.148L2201.116,1840.236Z" style="fill-rule:nonzero;"/>
            <path d="M2283.697,1840.236C2283.697,1838.229 2283.491,1836.495 2283.081,1835.035C2282.67,1833.575 2282.077,1832.366 2281.301,1831.408C2280.526,1830.45 2279.59,1829.735 2278.495,1829.263C2277.401,1828.792 2276.184,1828.556 2274.846,1828.556C2273.933,1828.556 2272.914,1828.739 2271.789,1829.104C2270.663,1829.469 2269.5,1829.963 2268.298,1830.587C2267.097,1831.21 2265.896,1831.933 2264.694,1832.754C2263.493,1833.575 2262.36,1834.457 2261.295,1835.4C2261.234,1836.373 2261.204,1837.415 2261.204,1838.525L2261.204,1853.148C2261.204,1855.733 2261.234,1857.992 2261.295,1859.923C2261.356,1861.855 2261.447,1863.52 2261.569,1864.919C2261.69,1866.318 2261.827,1867.489 2261.979,1868.432C2262.132,1869.375 2262.299,1870.166 2262.481,1870.805L2262.481,1870.987L2251.942,1870.987L2251.942,1870.805C2252.125,1870.166 2252.299,1869.375 2252.467,1868.432C2252.634,1867.489 2252.771,1866.318 2252.877,1864.919C2252.984,1863.52 2253.075,1861.855 2253.151,1859.923C2253.227,1857.992 2253.265,1855.733 2253.265,1853.148L2253.265,1842.107C2253.265,1839.521 2253.227,1837.263 2253.151,1835.332C2253.075,1833.4 2252.984,1831.735 2252.877,1830.336C2252.771,1828.937 2252.634,1827.765 2252.467,1826.823C2252.299,1825.88 2252.125,1825.089 2251.942,1824.45L2251.942,1824.268L2262.481,1824.268L2262.481,1824.45C2262.238,1825.15 2262.048,1826.039 2261.911,1827.119C2261.774,1828.199 2261.63,1829.56 2261.478,1831.203C2262.694,1830.229 2264.002,1829.271 2265.401,1828.328C2266.8,1827.385 2268.238,1826.549 2269.713,1825.819C2271.188,1825.089 2272.671,1824.496 2274.161,1824.039C2275.652,1823.583 2277.127,1823.355 2278.587,1823.355C2280.32,1823.355 2281.856,1823.583 2283.195,1824.039C2284.533,1824.496 2285.704,1825.119 2286.708,1825.91C2287.712,1826.701 2288.556,1827.629 2289.24,1828.693C2289.924,1829.758 2290.449,1830.898 2290.814,1832.115C2292.061,1831.05 2293.422,1829.993 2294.897,1828.944C2296.373,1827.895 2297.893,1826.959 2299.46,1826.138C2301.026,1825.317 2302.623,1824.648 2304.25,1824.131C2305.878,1823.614 2307.467,1823.355 2309.018,1823.355C2311.391,1823.355 2313.406,1823.766 2315.063,1824.587C2316.721,1825.408 2318.075,1826.488 2319.124,1827.826C2320.173,1829.165 2320.934,1830.693 2321.405,1832.412C2321.877,1834.13 2322.112,1835.871 2322.112,1837.636L2322.112,1853.148C2322.112,1855.733 2322.143,1857.992 2322.204,1859.923C2322.265,1861.855 2322.356,1863.52 2322.477,1864.919C2322.599,1866.318 2322.744,1867.489 2322.911,1868.432C2323.078,1869.375 2323.253,1870.166 2323.436,1870.805L2323.436,1870.987L2312.851,1870.987L2312.851,1870.805C2313.033,1870.166 2313.208,1869.375 2313.375,1868.432C2313.543,1867.489 2313.687,1866.318 2313.809,1864.919C2313.93,1863.52 2314.022,1861.855 2314.083,1859.923C2314.143,1857.992 2314.174,1855.733 2314.174,1853.148L2314.174,1840.236C2314.174,1836.221 2313.368,1833.271 2311.756,1831.385C2310.144,1829.499 2307.984,1828.556 2305.277,1828.556C2304.334,1828.556 2303.292,1828.739 2302.152,1829.104C2301.011,1829.469 2299.833,1829.971 2298.616,1830.609C2297.399,1831.248 2296.183,1831.986 2294.966,1832.822C2293.749,1833.659 2292.609,1834.548 2291.544,1835.491C2291.605,1835.856 2291.635,1836.221 2291.635,1836.586L2291.635,1853.148C2291.635,1855.733 2291.673,1857.992 2291.749,1859.923C2291.825,1861.855 2291.917,1863.52 2292.023,1864.919C2292.13,1866.318 2292.266,1867.489 2292.434,1868.432C2292.601,1869.375 2292.776,1870.166 2292.958,1870.805L2292.958,1870.987L2282.419,1870.987L2282.419,1870.805C2282.602,1870.166 2282.769,1869.375 2282.921,1868.432C2283.073,1867.489 2283.21,1866.318 2283.332,1864.919C2283.453,1863.52 2283.545,1861.855 2283.605,1859.923C2283.666,1857.992 2283.697,1855.733 2283.697,1853.148L2283.697,1840.236Z" style="fill-rule:nonzero;"/>
            <path d="M2356.285,1871.808C2352.909,1871.808 2349.746,1871.276 2346.795,1870.211C2343.845,1869.147 2341.275,1867.588 2339.085,1865.535C2336.895,1863.482 2335.169,1860.942 2333.906,1857.916C2332.644,1854.889 2332.013,1851.429 2332.013,1847.536C2332.013,1844.099 2332.591,1840.913 2333.747,1837.978C2334.902,1835.043 2336.499,1832.495 2338.537,1830.336C2340.575,1828.176 2342.955,1826.488 2345.677,1825.271C2348.4,1824.055 2351.342,1823.446 2354.506,1823.446C2357.639,1823.446 2360.543,1823.986 2363.22,1825.066C2365.897,1826.146 2368.216,1827.712 2370.178,1829.765C2372.14,1831.818 2373.691,1834.358 2374.831,1837.385C2375.972,1840.411 2376.588,1843.856 2376.679,1847.719C2373.242,1847.658 2369.805,1847.612 2366.368,1847.582C2362.931,1847.551 2359.357,1847.536 2355.646,1847.536C2353,1847.536 2350.422,1847.551 2347.913,1847.582C2345.404,1847.612 2343.145,1847.658 2341.138,1847.719C2341.32,1850.882 2341.815,1853.741 2342.621,1856.296C2343.427,1858.851 2344.537,1861.033 2345.951,1862.843C2347.366,1864.653 2349.084,1866.044 2351.107,1867.018C2353.129,1867.991 2355.418,1868.478 2357.973,1868.478C2359.737,1868.478 2361.403,1868.272 2362.969,1867.862C2364.536,1867.451 2365.957,1866.881 2367.235,1866.151C2368.512,1865.421 2369.653,1864.562 2370.657,1863.573C2371.661,1862.585 2372.512,1861.512 2373.212,1860.357L2373.759,1860.63L2370.383,1868.751C2368.741,1869.603 2366.779,1870.325 2364.497,1870.919C2362.216,1871.512 2359.479,1871.808 2356.285,1871.808ZM2350.217,1843.977C2353.259,1843.977 2356.308,1843.97 2359.365,1843.955C2362.422,1843.939 2365.197,1843.886 2367.691,1843.795C2367.417,1841.149 2366.9,1838.776 2366.14,1836.677C2365.38,1834.579 2364.406,1832.799 2363.22,1831.339C2362.034,1829.879 2360.635,1828.754 2359.023,1827.963C2357.411,1827.172 2355.631,1826.777 2353.685,1826.777C2351.92,1826.777 2350.301,1827.165 2348.826,1827.94C2347.35,1828.716 2346.065,1829.834 2344.97,1831.294C2343.875,1832.754 2342.993,1834.541 2342.324,1836.655C2341.655,1838.769 2341.259,1841.179 2341.138,1843.886C2342.507,1843.947 2343.951,1843.977 2345.472,1843.977L2350.217,1843.977Z" style="fill-rule:nonzero;"/>
            <path d="M2386.762,1820.618C2386.762,1818.032 2386.724,1815.774 2386.648,1813.842C2386.572,1811.911 2386.481,1810.246 2386.374,1808.847C2386.268,1807.447 2386.131,1806.276 2385.964,1805.333C2385.796,1804.391 2385.622,1803.6 2385.439,1802.961L2385.439,1802.779L2395.978,1802.779L2395.978,1802.961C2395.796,1803.6 2395.629,1804.391 2395.476,1805.333C2395.324,1806.276 2395.188,1807.447 2395.066,1808.847C2394.944,1810.246 2394.853,1811.911 2394.792,1813.842C2394.731,1815.774 2394.701,1818.032 2394.701,1820.618L2394.701,1853.148C2394.701,1855.733 2394.731,1857.992 2394.792,1859.923C2394.853,1861.855 2394.944,1863.52 2395.066,1864.919C2395.188,1866.318 2395.324,1867.489 2395.476,1868.432C2395.629,1869.375 2395.796,1870.166 2395.978,1870.805L2395.978,1870.987L2385.439,1870.987L2385.439,1870.805C2385.622,1870.166 2385.796,1869.375 2385.964,1868.432C2386.131,1867.489 2386.268,1866.318 2386.374,1864.919C2386.481,1863.52 2386.572,1861.855 2386.648,1859.923C2386.724,1857.992 2386.762,1855.733 2386.762,1853.148L2386.762,1820.618Z" style="fill-rule:nonzero;"/>
            <path d="M2409.301,1820.618C2409.301,1818.032 2409.263,1815.774 2409.187,1813.842C2409.111,1811.911 2409.019,1810.246 2408.913,1808.847C2408.806,1807.447 2408.67,1806.276 2408.502,1805.333C2408.335,1804.391 2408.16,1803.6 2407.978,1802.961L2407.978,1802.779L2418.517,1802.779L2418.517,1802.961C2418.334,1803.6 2418.167,1804.391 2418.015,1805.333C2417.863,1806.276 2417.726,1807.447 2417.604,1808.847C2417.483,1810.246 2417.391,1811.911 2417.331,1813.842C2417.27,1815.774 2417.239,1818.032 2417.239,1820.618L2417.239,1853.148C2417.239,1855.733 2417.27,1857.992 2417.331,1859.923C2417.391,1861.855 2417.483,1863.52 2417.604,1864.919C2417.726,1866.318 2417.863,1867.489 2418.015,1868.432C2418.167,1869.375 2418.334,1870.166 2418.517,1870.805L2418.517,1870.987L2407.978,1870.987L2407.978,1870.805C2408.16,1870.166 2408.335,1869.375 2408.502,1868.432C2408.67,1867.489 2408.806,1866.318 2408.913,1864.919C2409.019,1863.52 2409.111,1861.855 2409.187,1859.923C2409.263,1857.992 2409.301,1855.733 2409.301,1853.148L2409.301,1820.618Z" style="fill-rule:nonzero;"/>
        </g>
    </g>
    <defs>
        <linearGradient id="_Linear1" x1="0" y1="0" x2="1" y2="0" gradientUnits="userSpaceOnUse" gradientTransform="matrix(257.531221,703.12477,-775.813826,233.402105,414.355474,637.226612)"><stop offset="0" style="stop-color:rgb(11,22,13);stop-opacity:1"/><stop offset="1" style="stop-color:rgb(63,106,71);stop-opacity:1"/></linearGradient>
        <linearGradient id="_Linear2" x1="0" y1="0" x2="1" y2="0" gradientUnits="userSpaceOnUse" gradientTransform="matrix(-259.373899,-742.598233,819.368058,-235.072136,871.738904,1879.537576)"><stop offset="0" style="stop-color:white;stop-opacity:0.84"/><stop offset="1" style="stop-color:rgb(63,135,39);stop-opacity:0.84"/></linearGradient>
        <linearGradient id="_Linear3" x1="0" y1="0" x2="1" y2="0" gradientUnits="userSpaceOnUse" gradientTransform="matrix(-116,-806,806,-116,1189,1904)"><stop offset="0" style="stop-color:white;stop-opacity:0.84"/><stop offset="1" style="stop-color:rgb(63,135,39);stop-opacity:0.84"/></linearGradient>
    </defs>
</svg>
